<svg width="160" height="47" viewBox="0 0 160 47" fill="none" xmlns="http://www.w3.org/2000/svg">
<g clip-path="url(#clip0_3_45)">
<path d="M154.074 47H5.92593C2.66667 47 0 44.3562 0 41.125V5.875C0 2.64375 2.66667 0 5.92593 0H154.074C157.333 0 160 2.64375 160 5.875V41.125C160 44.3562 157.333 47 154.074 47Z" fill="black"/>
<path d="M154.074 0.94C156.824 0.94 159.052 3.149 159.052 5.875V41.125C159.052 43.851 156.824 46.06 154.074 46.06H5.92593C3.1763 46.06 0.948148 43.851 0.948148 41.125V5.875C0.948148 3.149 3.1763 0.94 5.92593 0.94H154.074V0.94ZM154.074 0H5.92593C2.66667 0 0 2.64375 0 5.875V41.125C0 44.3562 2.66667 47 5.92593 47H154.074C157.333 47 160 44.3562 160 41.125V5.875C160 2.64375 157.333 0 154.074 0Z" fill="#A6A6A6"/>
<path d="M80.7578 25.5571C77.9726 25.5571 75.6971 27.6604 75.6971 30.5509C75.6971 33.4296 77.9726 35.5446 80.7578 35.5446C83.543 35.5446 85.8185 33.4296 85.8185 30.5509C85.8185 27.6604 83.543 25.5571 80.7578 25.5571ZM80.7578 33.5824C79.2289 33.5824 77.9134 32.3369 77.9134 30.5509C77.9134 28.7531 79.2289 27.5194 80.7578 27.5194C82.2867 27.5194 83.6022 28.7531 83.6022 30.5509C83.6022 32.3369 82.2748 33.5824 80.7578 33.5824ZM69.7119 25.5571C66.9267 25.5571 64.6511 27.6604 64.6511 30.5509C64.6511 33.4296 66.9267 35.5446 69.7119 35.5446C72.4971 35.5446 74.7726 33.4296 74.7726 30.5509C74.7726 27.6604 72.4971 25.5571 69.7119 25.5571ZM69.7119 33.5824C68.183 33.5824 66.8674 32.3369 66.8674 30.5509C66.8674 28.7531 68.183 27.5194 69.7119 27.5194C71.2408 27.5194 72.5563 28.7531 72.5563 30.5509C72.5563 32.3369 71.2408 33.5824 69.7119 33.5824ZM56.58 27.0964V29.2114H61.7C61.5459 30.3981 61.143 31.2794 60.5385 31.8786C59.7919 32.6189 58.6304 33.4296 56.5919 33.4296C53.4393 33.4296 50.9741 30.9151 50.9741 27.7896C50.9741 24.6641 53.4393 22.1496 56.5919 22.1496C58.2867 22.1496 59.5311 22.8076 60.4437 23.6654L61.9489 22.1731C60.6689 20.9629 58.9741 20.0346 56.58 20.0346C52.2659 20.0346 48.6393 23.5126 48.6393 27.8014C48.6393 32.0784 52.2659 35.5681 56.58 35.5681C58.9148 35.5681 60.6689 34.8161 62.0437 33.3944C63.4541 31.9961 63.8926 30.0221 63.8926 28.4359C63.8926 27.9424 63.8571 27.4841 63.7741 27.1081H56.58V27.0964ZM110.281 28.7414C109.866 27.6251 108.586 25.5571 105.967 25.5571C103.371 25.5571 101.214 27.5781 101.214 30.5509C101.214 33.3474 103.347 35.5446 106.216 35.5446C108.527 35.5446 109.866 34.1464 110.411 33.3356L108.693 32.1959C108.124 33.0301 107.342 33.5824 106.216 33.5824C105.09 33.5824 104.284 33.0654 103.774 32.0666L110.518 29.3054L110.281 28.7414ZM103.407 30.4099C103.347 28.4829 104.912 27.4959 106.038 27.4959C106.915 27.4959 107.662 27.9306 107.91 28.5534L103.407 30.4099ZM97.9311 35.2509H100.147V20.5634H97.9311V35.2509ZM94.3045 26.6734H94.2215C93.7237 26.0859 92.7756 25.5571 91.5667 25.5571C89.0422 25.5571 86.7311 27.7544 86.7311 30.5744C86.7311 33.3709 89.0422 35.5564 91.5667 35.5564C92.7637 35.5564 93.7237 35.0276 94.2215 34.4166H94.2926V35.1334C94.2926 37.0486 93.2615 38.0709 91.6022 38.0709C90.2511 38.0709 89.4097 37.1074 89.0659 36.2966L87.1341 37.0956C87.6911 38.4234 89.1608 40.0449 91.6022 40.0449C94.1978 40.0449 96.3904 38.5291 96.3904 34.8396V25.8626H94.2926V26.6734H94.3045ZM91.7563 33.5824C90.2274 33.5824 88.9474 32.3134 88.9474 30.5744C88.9474 28.8119 90.2274 27.5311 91.7563 27.5311C93.2615 27.5311 94.4467 28.8236 94.4467 30.5744C94.4585 32.3134 93.2734 33.5824 91.7563 33.5824ZM120.663 20.5634H115.365V35.2509H117.582V29.6814H120.675C123.128 29.6814 125.534 27.9189 125.534 25.1224C125.534 22.3259 123.104 20.5634 120.663 20.5634ZM120.71 27.6369H117.57V22.5961H120.71C122.37 22.5961 123.306 23.9591 123.306 25.1106C123.306 26.2621 122.37 27.6369 120.71 27.6369ZM134.387 25.5336C132.787 25.5336 131.128 26.2386 130.441 27.7779L132.408 28.5886C132.823 27.7779 133.605 27.5076 134.423 27.5076C135.573 27.5076 136.734 28.1891 136.746 29.3994V29.5521C136.343 29.3289 135.49 28.9881 134.435 28.9881C132.313 28.9881 130.168 30.1396 130.168 32.2899C130.168 34.2521 131.899 35.5211 133.842 35.5211C135.324 35.5211 136.153 34.8631 136.663 34.0876H136.734V35.2274H138.867V29.5991C138.879 26.9906 136.912 25.5336 134.387 25.5336ZM134.115 33.5824C133.392 33.5824 132.384 33.2181 132.384 32.3369C132.384 31.2089 133.641 30.7741 134.731 30.7741C135.703 30.7741 136.165 30.9856 136.746 31.2676C136.58 32.6189 135.395 33.5824 134.115 33.5824ZM146.654 25.8509L144.118 32.2194H144.047L141.416 25.8509H139.033L142.98 34.7574L140.728 39.7041H143.039L149.119 25.8509H146.654ZM126.743 35.2509H128.959V20.5634H126.743V35.2509Z" fill="white"/>
<path d="M12.3739 8.8588C12.0302 9.22305 11.8287 9.78705 11.8287 10.5038V36.4948C11.8287 37.2233 12.0302 37.7873 12.3739 38.1398L12.4568 38.2221L27.1413 23.6756V23.4993V23.3231L12.4568 8.77655L12.3739 8.8588Z" fill="url(#paint0_linear_3_45)"/>
<path d="M32.0345 28.5288L27.1396 23.6761V23.4998V23.3236L32.0345 18.4708L32.1411 18.5296L37.9367 21.7961C39.5959 22.7243 39.5959 24.2518 37.9367 25.1918L32.1411 28.4583L32.0345 28.5288Z" fill="url(#paint1_linear_3_45)"/>
<path d="M32.1401 28.4672L27.1386 23.4969L12.3712 38.1374C12.9164 38.7132 13.8171 38.7837 14.8364 38.2079L32.1401 28.4672Z" fill="url(#paint2_linear_3_45)"/>
<path d="M32.1418 18.5403L14.8263 8.78783C13.807 8.21208 12.9063 8.28258 12.3611 8.85833L27.1403 23.4988L32.1418 18.5403Z" fill="url(#paint3_linear_3_45)"/>
<path opacity="0.2" d="M32.0367 28.3522L14.8278 38.0459C13.8678 38.5864 13.0026 38.5512 12.4574 38.0577L12.3745 38.1399L12.4574 38.2222C13.0145 38.7157 13.8678 38.7509 14.8278 38.2104L32.1433 28.4579L32.0367 28.3522Z" fill="black"/>
<path opacity="0.12" d="M12.3739 37.9769C12.0302 37.6127 11.8287 37.0487 11.8287 36.3319V36.5082C11.8287 37.2367 12.0302 37.8007 12.3739 38.1532L12.4568 38.0709L12.3739 37.9769Z" fill="black"/>
<path opacity="0.12" d="M37.9375 25.0244L32.0234 28.3497L32.1301 28.4554L37.9257 25.1889C38.7553 24.7189 39.1701 24.1079 39.1701 23.4969C39.1108 24.0492 38.696 24.6014 37.9375 25.0244Z" fill="black"/>
<path opacity="0.25" d="M14.8256 8.953L37.9367 21.972C38.6834 22.395 39.1101 22.9355 39.1812 23.4995C39.1812 22.8885 38.7664 22.2657 37.9367 21.8075L14.8256 8.7885C13.1664 7.86025 11.8152 8.63575 11.8152 10.5157V10.692C11.8152 8.80025 13.1782 8.02475 14.8256 8.953Z" fill="white"/>
<path d="M49.9091 16.7649H49.0321V14.4031H49.7314C50.3477 13.8744 50.644 12.9813 50.6321 11.7006V8.2226H55.3847V14.4031H56.1788V16.7649H55.3017V15.2726H49.9091V16.7649ZM51.5565 11.7123C51.5684 12.8286 51.3432 13.7216 50.881 14.4149H54.4721V9.0921H51.5565V11.7123Z" fill="white" stroke="white" stroke-width="0.2" stroke-miterlimit="10"/>
<path d="M63.3032 14.3577C62.6039 15.0745 61.7387 15.427 60.6958 15.427C59.6528 15.427 58.7876 15.0745 58.0884 14.3577C57.3891 13.641 57.0454 12.7715 57.0454 11.7492C57.0454 10.727 57.3891 9.84572 58.0884 9.14072C58.7876 8.42397 59.6528 8.07147 60.6958 8.07147C61.7269 8.07147 62.5921 8.42397 63.3032 9.14072C64.0025 9.85747 64.358 10.727 64.358 11.7492C64.358 12.7832 64.0025 13.6527 63.3032 14.3577ZM58.7639 13.7702C59.2854 14.299 59.9373 14.5575 60.6958 14.5575C61.4543 14.5575 62.1062 14.299 62.6276 13.7702C63.1491 13.2415 63.4217 12.5717 63.4217 11.7492C63.4217 10.9267 63.161 10.257 62.6276 9.72822C62.1062 9.19947 61.4662 8.92922 60.6958 8.92922C59.9373 8.92922 59.2854 9.18772 58.7639 9.71647C58.2424 10.257 57.9817 10.9267 57.9817 11.7492C57.9817 12.5717 58.2424 13.2415 58.7639 13.7702Z" fill="white" stroke="white" stroke-width="0.2" stroke-miterlimit="10"/>
<path d="M68.9564 15.4276C67.9135 15.4276 67.0364 15.0751 66.3253 14.3701C65.6142 13.6651 65.2587 12.7956 65.2587 11.7381C65.2587 10.6924 65.6142 9.81114 66.3253 9.10614C67.0364 8.40114 67.9135 8.04865 68.9564 8.04865C70.0231 8.04865 70.9001 8.43639 71.5638 9.20014L70.9238 9.81114C70.4379 9.21189 69.7861 8.91814 68.9446 8.91814C68.1742 8.91814 67.5105 9.17664 66.9772 9.69364C66.4438 10.2106 66.1831 10.8921 66.1831 11.7264C66.1831 12.5606 66.4438 13.2421 66.9772 13.7591C67.5105 14.2761 68.1624 14.5346 68.9446 14.5346C69.7979 14.5346 70.5209 14.1939 71.1253 13.5124L71.7653 14.1469C71.4453 14.5346 71.0305 14.8401 70.5446 15.0634C70.0587 15.3219 69.5253 15.4276 68.9564 15.4276Z" fill="white" stroke="white" stroke-width="0.2" stroke-miterlimit="10"/>
<path d="M75.4729 15.2726H74.5603V9.09209H72.5692V8.2226H77.4522V9.09209H75.4611V15.2726H75.4729Z" fill="white" stroke="white" stroke-width="0.2" stroke-miterlimit="10"/>
<path d="M83.7343 8.2226L81.0439 14.1681C80.6765 15.0023 80.1195 15.4253 79.3846 15.4253C79.1713 15.4253 78.9343 15.3783 78.6735 15.2726L78.9106 14.4383C79.0646 14.5206 79.2187 14.5676 79.3846 14.5676C79.598 14.5676 79.7639 14.5323 79.8824 14.4501C80.0009 14.3678 80.1076 14.2151 80.2024 14.0036L80.4632 13.4396L78.0691 8.2226H79.1476L80.9017 12.2646H80.9372L82.6557 8.2226H83.7343Z" fill="white" stroke="white" stroke-width="0.2" stroke-miterlimit="10"/>
<path d="M84.7641 15.2726V8.2226H89.9078V15.2726H88.9952V9.09209H85.6767V15.2726H84.7641Z" fill="white" stroke="white" stroke-width="0.2" stroke-miterlimit="10"/>
<path d="M91.5322 15.2726V8.2226H92.4448V11.2423H96.0003V8.2226H96.9129V15.2726H96.0003V12.0883H92.4448V15.2726H91.5322Z" fill="white" stroke="white" stroke-width="0.2" stroke-miterlimit="10"/>
<path d="M104.369 14.3577C103.669 15.0745 102.804 15.427 101.761 15.427C100.718 15.427 99.8532 15.0745 99.1539 14.3577C98.4547 13.641 98.111 12.7715 98.111 11.7492C98.111 10.727 98.4547 9.84572 99.1539 9.14072C99.8532 8.42397 100.718 8.07147 101.761 8.07147C102.792 8.07147 103.658 8.42397 104.369 9.14072C105.068 9.85747 105.424 10.727 105.424 11.7492C105.412 12.7832 105.068 13.6527 104.369 14.3577ZM99.8295 13.7702C100.351 14.299 101.003 14.5575 101.761 14.5575C102.52 14.5575 103.172 14.299 103.693 13.7702C104.215 13.2415 104.487 12.5717 104.487 11.7492C104.487 10.9267 104.227 10.257 103.693 9.72822C103.16 9.19947 102.52 8.92922 101.761 8.92922C101.003 8.92922 100.351 9.18772 99.8295 9.71647C99.2962 10.257 99.0354 10.9267 99.0354 11.7492C99.0354 12.5717 99.2962 13.2415 99.8295 13.7702Z" fill="white" stroke="white" stroke-width="0.2" stroke-miterlimit="10"/>
<path d="M109.144 15.2726V8.2226H111.716C112.273 8.2226 112.759 8.4106 113.161 8.7631C113.576 9.1391 113.778 9.59735 113.778 10.1378C113.778 10.4786 113.695 10.7723 113.517 11.0191C113.339 11.2776 113.114 11.4656 112.818 11.5948V11.6301C113.173 11.7476 113.458 11.9473 113.683 12.2411C113.908 12.5348 114.027 12.8638 114.027 13.2398C114.027 13.8156 113.813 14.2973 113.387 14.6733C112.948 15.0846 112.439 15.2726 111.858 15.2726H109.144ZM110.056 11.2423H111.716C112.059 11.2423 112.332 11.1248 112.545 10.9016C112.759 10.6783 112.853 10.4316 112.853 10.1613C112.853 9.89109 112.759 9.64435 112.545 9.4211C112.344 9.19785 112.083 9.08035 111.751 9.08035H110.056V11.2423ZM110.056 14.4031H111.893C112.249 14.4031 112.533 14.2856 112.747 14.0388C112.96 13.7921 113.079 13.5336 113.079 13.2398C113.079 12.9461 112.972 12.6876 112.735 12.4526C112.51 12.2176 112.213 12.0883 111.846 12.0883H110.044V14.4031H110.056Z" fill="white" stroke="white" stroke-width="0.2" stroke-miterlimit="10"/>
</g>
<defs>
<linearGradient id="paint0_linear_3_45" x1="25.8371" y1="10.2333" x2="6.1185" y2="30.1228" gradientUnits="userSpaceOnUse">
<stop stop-color="#00A0FF"/>
<stop offset="0.00657445" stop-color="#00A1FF"/>
<stop offset="0.2601" stop-color="#00BEFF"/>
<stop offset="0.5122" stop-color="#00D2FF"/>
<stop offset="0.7604" stop-color="#00DFFF"/>
<stop offset="1" stop-color="#00E3FF"/>
</linearGradient>
<linearGradient id="paint1_linear_3_45" x1="40.0988" y1="23.5016" x2="11.421" y2="23.5016" gradientUnits="userSpaceOnUse">
<stop stop-color="#FFE000"/>
<stop offset="0.4087" stop-color="#FFBD00"/>
<stop offset="0.7754" stop-color="#FFA500"/>
<stop offset="1" stop-color="#FF9C00"/>
</linearGradient>
<linearGradient id="paint2_linear_3_45" x1="29.4224" y1="26.195" x2="2.68236" y2="53.1668" gradientUnits="userSpaceOnUse">
<stop stop-color="#FF3A44"/>
<stop offset="1" stop-color="#C31162"/>
</linearGradient>
<linearGradient id="paint3_linear_3_45" x1="8.64814" y1="0.20598" x2="20.5887" y2="12.25" gradientUnits="userSpaceOnUse">
<stop stop-color="#32A071"/>
<stop offset="0.0685" stop-color="#2DA771"/>
<stop offset="0.4762" stop-color="#15CF74"/>
<stop offset="0.8009" stop-color="#06E775"/>
<stop offset="1" stop-color="#00F076"/>
</linearGradient>
<clipPath id="clip0_3_45">
<rect width="160" height="47" fill="white"/>
</clipPath>
</defs>
</svg>
