<svg width="25" height="25" viewBox="0 0 25 25" fill="none" xmlns="http://www.w3.org/2000/svg">
    <path d="M17.1875 0H7.8125C3.49844 0 0 3.49844 0 7.8125V17.1875C0 21.5016 3.49844 25 7.8125 25H17.1875C21.5016 25 25 21.5016 25 17.1875V7.8125C25 3.49844 21.5016 0 17.1875 0ZM22.6562 17.1875C22.6562 20.2031 20.2031 22.6562 17.1875 22.6562H7.8125C4.79688 22.6562 2.34375 20.2031 2.34375 17.1875V7.8125C2.34375 4.79688 4.79688 2.34375 7.8125 2.34375H17.1875C20.2031 2.34375 22.6562 4.79688 22.6562 7.8125V17.1875Z M1.21871 2.61387C1.67866 2.61387 2.05152 2.241 2.05152 1.78105C2.05152 1.3211 1.67866 0.948242 1.21871 0.948242C0.758758 0.948242 0.385895 1.3211 0.385895 1.78105C0.385895 2.241 0.758758 2.61387 1.21871 2.61387Z M6.5 0.25C3.04844 0.25 0.25 3.04844 0.25 6.5C0.25 9.95156 3.04844 12.75 6.5 12.75C9.95156 12.75 12.75 9.95156 12.75 6.5C12.75 3.04844 9.95156 0.25 6.5 0.25ZM6.5 10.4062C4.34687 10.4062 2.59375 8.65313 2.59375 6.5C2.59375 4.34531 4.34687 2.59375 6.5 2.59375C8.65313 2.59375 10.4062 4.34531 10.4062 6.5C10.4062 8.65313 8.65313 10.4062 6.5 10.4062Z" fill="#E0E0E0"/>
</svg>


